<svg id="Layer_1" enable-background="new 0 0 512.416 512.416" height="512" viewBox="0 0 512.416 512.416" width="512" xmlns="http://www.w3.org/2000/svg"><path d="m226.792 221.179.118-.057-.011-.022c-2.683 1.337-5.698 2.108-8.899 2.108-11.046 0-20-8.954-20-20 0-8.007 4.716-14.895 11.512-18.09l-.006-.012c2.097-1.013 21.22-9.898 46.702-9.898 25.249 0 45.029 8.884 47.21 9.877 6.834 3.18 11.582 10.089 11.582 18.123 0 11.046-8.954 20-20 20-3.559 0-6.895-.94-9.79-2.57-4.293-1.623-15.775-5.43-29.002-5.43-16.431 0-29.289 5.911-29.416 5.971zm139.481-70.39c4.739-9.977.493-21.907-9.484-26.646-1.799-.855-44.715-20.935-100.581-20.935s-98.782 20.08-100.581 20.935c-9.978 4.739-14.246 16.68-9.507 26.657 3.425 7.209 10.592 11.432 18.07 11.432 2.871 0 5.787-.622 8.555-1.937.364-.171 36.974-17.086 83.463-17.086 46.338 0 82.862 16.806 83.458 17.084 9.97 4.706 21.875.461 26.607-9.504zm109.197 1.012c10.425 18.978 19.01 41.657 25.158 66.625 2.641 10.726-3.913 21.561-14.638 24.202-1.606.396-3.214.585-4.797.585-8.989 0-17.159-6.104-19.404-15.223-6.835-27.76-16.881-51.77-29.05-69.436-3.112-4.518-4.316-10.064-3.181-15.432s4.341-9.981 9.016-12.853c.255-.164 33.635-21.976 33.635-55.062 0-6.725.066-12.772.124-18.107.053-4.868.109-10.038.069-14.49-15.24 3.743-41.45 11.403-69.374 20.056 5.077 3.4 10.034 7.066 14.853 11.012 8.546 6.999 9.8 19.6 2.802 28.145-3.954 4.828-9.697 7.329-15.485 7.329-4.458 0-8.942-1.482-12.66-4.527-26.268-21.511-56.235-32.418-89.066-32.418-.078 0-.153 0-.231 0-5.219.008-11.093.739-17.311 1.512-9.723 1.199-21.152 2.502-30.939 2.488-10.162-.02-22.167-1.482-30.976-2.554-6.045-.743-11.756-1.446-16.797-1.446-.003 0-.005 0-.008 0-.09-.001-.178 0-.265 0-32.833 0-62.794 10.905-89.064 32.418-3.717 3.044-8.203 4.527-12.66 4.527-5.789 0-11.531-2.5-15.485-7.329-6.998-8.546-5.744-21.146 2.802-28.145 5.018-4.109 10.185-7.92 15.483-11.437-27.409-8.479-53.013-15.95-68.004-19.631-.04 4.452.016 9.622.069 14.49.058 5.335.124 11.382.124 18.107 0 33.086 33.381 54.898 33.718 55.114 4.675 2.872 7.84 7.459 8.975 12.826 1.135 5.368-.11 10.888-3.222 15.406-23.102 33.535-34.384 83.905-38.066 126.409 12.99-3.185 23.877-3.678 25.951-3.745 7.75-.237 14.904 3.977 18.436 10.852 3.532 6.876 2.785 15.172-1.918 21.306-7.474 9.81-22.277 33.404-29.647 58.494 11.402-6.546 19.588-9.923 20.229-10.184 6.516-2.654 13.947-1.69 19.569 2.54 5.623 4.229 8.609 11.102 7.865 18.098-2.236 21.018-.729 37.277 5.283 50.652 6.713-36.706 21.036-60.034 21.869-61.368 4.729-7.566 13.896-11.084 22.474-8.625 8.576 2.46 14.486 10.303 14.486 19.225 0 19.299 15.701 35 35 35 17.51 0 32.057-12.925 34.604-29.736-8.525-9.578-21.905-21.593-33.381-27.323-6.075-3.032-7.431-9.941-7.431-16.941v-55.145l-35.277-19.416c-20.295-8.286-26.689-26.887-28.432-41.334-1.049-8.693 8.064-14.96 15.706-10.773l77.812 42.123c6.413 3.509 10.4 10.236 10.4 17.545v55.319c6.638 1.034 13.821 2.537 21 4.721 7.107-2.472 14.302-4.083 21-5.131v-54.909c0-7.31 3.987-14.037 10.4-17.545l76.812-42.123c7.642-4.188 16.754 2.08 15.706 10.773-1.215 10.068-4.691 22.153-13.552 31.361-1.709 2.443-3.973 4.552-6.766 6.081l-42.6 23.31s-.027 55.595-.034 55.822c.321 6.572-1.785 13.47-7.383 16.264-11.79 5.887-24.792 18.412-33.049 28.108 2.875 16.425 17.23 28.951 34.466 28.951 19.299 0 35-15.701 35-35 0-8.922 5.91-16.765 14.486-19.225 8.578-2.458 17.745 1.06 22.474 8.625.833 1.334 15.156 24.662 21.869 61.368 6.013-13.375 7.519-29.634 5.283-50.652-.744-6.996 2.242-13.869 7.864-18.098s13.053-5.194 19.569-2.54c.641.261 8.827 3.638 20.229 10.184-7.372-25.091-22.178-48.691-29.665-58.517-4.678-6.14-5.415-14.436-1.877-21.297 3.537-6.86 10.684-11.085 18.413-10.837 3.87.125 38.434 1.734 60.069 19.551 8.526 7.021 9.746 19.626 2.724 28.153-5.133 6.232-13.25 8.56-20.575 6.62 10.398 23.435 18.736 52.808 13.844 81.077-1.247 7.207-6.328 13.157-13.25 15.519-6.922 2.359-14.58.756-19.972-4.186-5.647-5.177-11.535-9.691-17.119-13.523-3.506 35.731-20.072 61.918-51.383 82.494-3.326 2.186-7.151 3.286-10.984 3.286-3.427 0-6.859-.879-9.946-2.649-6.539-3.749-10.416-10.856-10.026-18.384.867-16.764-.854-31.787-3.565-44.416-5.311 5.401-11.44 9.99-18.172 13.596-1.727 4.303-7.636 17.621-19.363 31.022-18.792 21.478-43.318 32.83-70.926 32.83-27.565 0-52.066-11.227-70.855-32.466-12.578-14.218-18.482-28.355-19.712-31.529-6.594-3.568-12.602-8.085-17.824-13.382-2.743 12.679-4.496 27.706-3.636 44.344.39 7.528-3.487 14.635-10.026 18.384-3.087 1.769-6.52 2.649-9.946 2.649-3.833 0-7.658-1.1-10.984-3.286-31.313-20.577-47.879-46.765-51.384-82.5-5.578 3.83-11.461 8.344-17.118 13.53-5.392 4.941-13.049 6.547-19.972 4.186-6.922-2.361-12.003-8.312-13.25-15.519-4.894-28.272 3.446-57.646 13.846-81.082-4.478 1.19-9.323.812-13.675-1.242-6.999-3.303-11.464-10.348-11.464-18.087 0-48.991 9.865-115.318 36.745-164.401-15.449-14.28-36.745-40.51-36.745-76.599 0-6.507-.064-12.439-.121-17.672-.294-26.486-.438-39.779 9.368-49.693 4.872-4.924 11.529-7.637 18.747-7.637 4.353 0 128.525 35.492 134.739 37.51 14.257-3.642 28.99-5.509 44.005-5.509h.244.01c7.495 0 15.815 1.142 22.793 2 8.074.982 17.29 1.985 25.067 2 7.518.026 16.194-.922 24.933-2 7.138-.888 15.511-1.988 23.176-2h.284c15.411 0 30.525 1.962 45.13 5.795 4.188-1.362 131.265-37.795 135.618-37.795 7.217 0 13.875 2.712 18.747 7.637 9.807 9.914 9.663 23.208 9.375 49.691-.057 5.233-.121 11.165-.121 17.672 0 36.081-21.291 62.31-36.738 76.592zm-258.156 303.647c8.513 8.729 21.16 16.76 38.894 16.76 17.626 0 30.213-8.038 38.713-16.802-15.121-3.363-28.536-11.294-38.713-22.279-10.218 11.029-23.698 18.981-38.894 22.321z"/></svg>